<svg id="visual" viewBox="0 0 960 450" width="960" height="450" xmlns="http://www.w3.org/2000/svg" xmlns:xlink="http://www.w3.org/1999/xlink" version="1.1"><rect x="0" y="0" width="960" height="450" fill="#001220"></rect><defs><linearGradient id="grad1_0" x1="53.1%" y1="0%" x2="100%" y2="100%"><stop offset="7.333333333333333%" stop-color="#001220" stop-opacity="1"></stop><stop offset="92.66666666666667%" stop-color="#001220" stop-opacity="1"></stop></linearGradient></defs><defs><linearGradient id="grad2_0" x1="0%" y1="0%" x2="46.9%" y2="100%"><stop offset="7.333333333333333%" stop-color="#001220" stop-opacity="1"></stop><stop offset="92.66666666666667%" stop-color="#001220" stop-opacity="1"></stop></linearGradient></defs><g transform="translate(960, 0)"><path d="M0 382.5C-40.6 357 -81.2 331.5 -131.6 317.8C-182.1 304.1 -242.4 302.1 -270.5 270.5C-298.5 238.8 -294.4 177.5 -307.7 127.4C-320.9 77.4 -351.7 38.7 -382.5 0L0 0Z" fill="#FBAE3C"></path></g><g transform="translate(0, 450)"><path d="M0 -382.5C56.7 -385.1 113.5 -387.8 146.4 -353.4C179.3 -319 188.3 -247.5 202.9 -202.9C217.6 -158.4 238 -140.7 268.8 -111.4C299.7 -82 341.1 -41 382.5 0L0 0Z" fill="#FBAE3C"></path></g></svg>